<svg
class="Rearrange-Action"
          xmlns="http://www.w3.org/2000/svg"
          xmlns:xlink="http://www.w3.org/1999/xlink"
          viewBox="0,0,256,256"
          width="100px"
          height="100px"
        >
          <g
            
            fill="none"
            fill-rule="nonzero"
            stroke="none"
            stroke-width="1"
            stroke-linecap="butt"
            stroke-linejoin="miter"
            stroke-miterlimit="10"
            stroke-dasharray=""
            stroke-dashoffset="0"
            font-family="none"
            font-weight="none"
            font-size="none"
            text-anchor="none"
            style="mix-blend-mode: normal"
          >
            <g transform="scale(2.56,2.56)">
              <path
                d="M70,82h-40c-6.627,0 -12,-5.373 -12,-12v-40c0,-6.627 5.373,-12 12,-12h40c6.627,0 12,5.373 12,12v40c0,6.627 -5.373,12 -12,12z"
                fill="#78a1d1"
              />
              <path
                d="M67.889,50.5c-0.753,0 -1.399,0.559 -1.481,1.308c-0.9,8.262 -7.9,14.692 -16.402,14.692c-6.004,0 -11.258,-3.206 -14.145,-8v0h3.145c0.828,0 1.5,-0.672 1.5,-1.5c0,-0.828 -0.672,-1.5 -1.5,-1.5h-8.5v8.5c0,0.828 0.672,1.5 1.5,1.5c0.828,0 1.5,-0.672 1.5,-1.5v-3.603c3.454,5.47 9.553,9.103 16.5,9.103c10.037,0 18.303,-7.583 19.381,-17.333c0.098,-0.888 -0.604,-1.667 -1.498,-1.667zM68,34.5c-0.828,0 -1.5,0.672 -1.5,1.5v3.603c-3.454,-5.47 -9.553,-9.103 -16.5,-9.103c-10.037,0 -18.303,7.583 -19.381,17.333c-0.098,0.888 0.604,1.667 1.498,1.667c0.753,0 1.399,-0.559 1.481,-1.308c0.9,-8.262 7.9,-14.692 16.402,-14.692c6.004,0 11.258,3.206 14.145,8v0h-3.145c-0.828,0 -1.5,0.672 -1.5,1.5c0,0.828 0.672,1.5 1.5,1.5h8.5v-8.5c0,-0.828 -0.672,-1.5 -1.5,-1.5z"
                fill="#fefdef"
              />
              <path
                d="M70,83h-40c-7.168,0 -13,-5.832 -13,-13v-40c0,-7.168 5.832,-13 13,-13h40c7.168,0 13,5.832 13,13v40c0,7.168 -5.832,13 -13,13zM30,19c-6.065,0 -11,4.935 -11,11v40c0,6.065 4.935,11 11,11h40c6.065,0 11,-4.935 11,-11v-40c0,-6.065 -4.935,-11 -11,-11z"
                fill="#1f212b"
              />
              <path
                d="M67.5,78h-35c-5.79,0 -10.5,-4.71 -10.5,-10.5v-35c0,-5.79 4.71,-10.5 10.5,-10.5h34c0.276,0 0.5,0.224 0.5,0.5c0,0.276 -0.224,0.5 -0.5,0.5h-34c-5.238,0 -9.5,4.262 -9.5,9.5v35c0,5.238 4.262,9.5 9.5,9.5h35c5.238,0 9.5,-4.262 9.5,-9.5v-20c0,-0.276 0.224,-0.5 0.5,-0.5c0.276,0 0.5,0.224 0.5,0.5v20c0,5.79 -4.71,10.5 -10.5,10.5z"
                fill="#1f212b"
              />
              <path
                d="M77.5,46c-0.276,0 -0.5,-0.224 -0.5,-0.5v-4c0,-0.276 0.224,-0.5 0.5,-0.5c0.276,0 0.5,0.224 0.5,0.5v4c0,0.276 -0.224,0.5 -0.5,0.5zM77.5,40c-0.276,0 -0.5,-0.224 -0.5,-0.5v-2c0,-0.276 0.224,-0.5 0.5,-0.5c0.276,0 0.5,0.224 0.5,0.5v2c0,0.276 -0.224,0.5 -0.5,0.5zM32.117,50c-0.569,0 -1.115,-0.244 -1.496,-0.67c-0.38,-0.424 -0.562,-0.99 -0.499,-1.553c1.121,-10.134 9.666,-17.777 19.878,-17.777c6.36,0 12.229,2.961 16,7.996v-1.996c0,-1.103 0.897,-2 2,-2c1.103,0 2,0.897 2,2v8.5c0,0.276 -0.224,0.5 -0.5,0.5h-8.5c-1.103,0 -2,-0.897 -2,-2c0,-1.103 0.897,-2 2,-2h2.231c-2.987,-4.4 -7.869,-7 -13.231,-7c-8.183,0 -15.021,6.124 -15.905,14.245c-0.109,1 -0.958,1.755 -1.978,1.755zM50,31c-9.701,0 -17.819,7.26 -18.884,16.888c-0.031,0.285 0.057,0.56 0.25,0.775c0.192,0.214 0.465,0.337 0.751,0.337c0.508,0 0.93,-0.371 0.983,-0.862c0.941,-8.63 8.207,-15.138 16.9,-15.138c6.018,0 11.465,3.081 14.573,8.242c0.093,0.154 0.096,0.347 0.007,0.504c-0.089,0.157 -0.255,0.254 -0.435,0.254h-3.145c-0.552,0 -1,0.448 -1,1c0,0.552 0.448,1 1,1h8v-8c0,-0.552 -0.448,-1 -1,-1c-0.552,0 -1,0.448 -1,1v3.604c0,0.223 -0.147,0.418 -0.361,0.48c-0.213,0.06 -0.442,-0.024 -0.562,-0.214c-3.507,-5.554 -9.516,-8.87 -16.077,-8.87zM50.006,70c-6.36,0 -12.229,-2.961 -16,-7.996v1.996c0,1.103 -0.897,2 -2,2c-1.103,0 -2,-0.897 -2,-2v-8.5c0,-0.276 0.224,-0.5 0.5,-0.5h8.5c1.103,0 2,0.897 2,2c0,1.103 -0.897,2 -2,2h-2.231c2.987,4.4 7.869,7 13.231,7c8.183,0 15.021,-6.124 15.905,-14.245c0.11,-1.001 0.96,-1.755 1.979,-1.755c0.569,0 1.114,0.244 1.495,0.67c0.38,0.424 0.562,0.989 0.499,1.553c-1.12,10.134 -9.665,17.777 -19.878,17.777zM33.506,59.896c0.168,0 0.329,0.085 0.423,0.233c3.507,5.555 9.516,8.871 16.077,8.871c9.702,0 17.82,-7.26 18.884,-16.888c0.032,-0.285 -0.057,-0.561 -0.25,-0.775c-0.192,-0.214 -0.465,-0.337 -0.75,-0.337c-0.508,0 -0.931,0.371 -0.984,0.863c-0.941,8.629 -8.207,15.137 -16.9,15.137c-6.018,0 -11.465,-3.081 -14.573,-8.242c-0.093,-0.154 -0.096,-0.347 -0.007,-0.504c0.089,-0.157 0.255,-0.254 0.435,-0.254h3.145c0.552,0 1,-0.448 1,-1c0,-0.552 -0.448,-1 -1,-1h-8v8c0,0.552 0.448,1 1,1c0.552,0 1,-0.448 1,-1v-3.604c0,-0.223 0.147,-0.418 0.361,-0.48c0.046,-0.013 0.093,-0.02 0.139,-0.02z"
                fill="#1f212b"
              />
            </g>
          </g>
        </svg>